<svg xmlns="http://www.w3.org/2000/svg" version="1.1" xmlns:xlink="http://www.w3.org/1999/xlink" xmlns:svgjs="http://svgjs.com/svgjs" width="1440" height="560" preserveAspectRatio="none" viewBox="0 0 1440 560"><g mask="url(&quot;#SvgjsMask1009&quot;)" fill="none"><path d="M197 64L196 482" stroke-width="6" stroke="url(#SvgjsLinearGradient1010)" stroke-linecap="round" class="Up"></path><path d="M169 141L168 -35" stroke-width="10" stroke="url(#SvgjsLinearGradient1011)" stroke-linecap="round" class="Down"></path><path d="M975 286L974 588" stroke-width="8" stroke="url(#SvgjsLinearGradient1011)" stroke-linecap="round" class="Down"></path><path d="M564 526L563 927" stroke-width="10" stroke="url(#SvgjsLinearGradient1011)" stroke-linecap="round" class="Down"></path><path d="M248 33L247 -345" stroke-width="10" stroke="url(#SvgjsLinearGradient1011)" stroke-linecap="round" class="Down"></path><path d="M1317 170L1316 361" stroke-width="10" stroke="url(#SvgjsLinearGradient1011)" stroke-linecap="round" class="Down"></path><path d="M7 401L6 738" stroke-width="8" stroke="url(#SvgjsLinearGradient1010)" stroke-linecap="round" class="Up"></path><path d="M763 349L762 752" stroke-width="6" stroke="url(#SvgjsLinearGradient1010)" stroke-linecap="round" class="Up"></path><path d="M887 128L886 546" stroke-width="6" stroke="url(#SvgjsLinearGradient1011)" stroke-linecap="round" class="Down"></path><path d="M736 403L735 76" stroke-width="6" stroke="url(#SvgjsLinearGradient1010)" stroke-linecap="round" class="Up"></path><path d="M274 221L273 5" stroke-width="6" stroke="url(#SvgjsLinearGradient1010)" stroke-linecap="round" class="Up"></path><path d="M621 69L620 243" stroke-width="8" stroke="url(#SvgjsLinearGradient1010)" stroke-linecap="round" class="Up"></path><path d="M1316 27L1315 -201" stroke-width="10" stroke="url(#SvgjsLinearGradient1011)" stroke-linecap="round" class="Down"></path><path d="M1097 23L1096 -355" stroke-width="8" stroke="url(#SvgjsLinearGradient1010)" stroke-linecap="round" class="Up"></path><path d="M99 310L98 493" stroke-width="6" stroke="url(#SvgjsLinearGradient1010)" stroke-linecap="round" class="Up"></path><path d="M1224 432L1223 641" stroke-width="10" stroke="url(#SvgjsLinearGradient1011)" stroke-linecap="round" class="Down"></path><path d="M160 222L159 -116" stroke-width="8" stroke="url(#SvgjsLinearGradient1011)" stroke-linecap="round" class="Down"></path><path d="M349 371L348 787" stroke-width="8" stroke="url(#SvgjsLinearGradient1011)" stroke-linecap="round" class="Down"></path><path d="M580 521L579 897" stroke-width="8" stroke="url(#SvgjsLinearGradient1011)" stroke-linecap="round" class="Down"></path><path d="M435 401L434 602" stroke-width="8" stroke="url(#SvgjsLinearGradient1011)" stroke-linecap="round" class="Down"></path><path d="M1267 188L1266 372" stroke-width="10" stroke="url(#SvgjsLinearGradient1010)" stroke-linecap="round" class="Up"></path><path d="M880 344L879 507" stroke-width="10" stroke="url(#SvgjsLinearGradient1010)" stroke-linecap="round" class="Up"></path><path d="M896 217L895 397" stroke-width="8" stroke="url(#SvgjsLinearGradient1010)" stroke-linecap="round" class="Up"></path><path d="M317 292L316 650" stroke-width="10" stroke="url(#SvgjsLinearGradient1011)" stroke-linecap="round" class="Down"></path><path d="M1031 65L1030 -348" stroke-width="8" stroke="url(#SvgjsLinearGradient1010)" stroke-linecap="round" class="Up"></path><path d="M1378 322L1377 475" stroke-width="8" stroke="url(#SvgjsLinearGradient1011)" stroke-linecap="round" class="Down"></path><path d="M1405 64L1404 457" stroke-width="10" stroke="url(#SvgjsLinearGradient1011)" stroke-linecap="round" class="Down"></path><path d="M486 460L485 844" stroke-width="8" stroke="url(#SvgjsLinearGradient1010)" stroke-linecap="round" class="Up"></path><path d="M998 220L997 452" stroke-width="10" stroke="url(#SvgjsLinearGradient1011)" stroke-linecap="round" class="Down"></path><path d="M671 99L670 -256" stroke-width="6" stroke="url(#SvgjsLinearGradient1010)" stroke-linecap="round" class="Up"></path><path d="M447 323L446 474" stroke-width="10" stroke="url(#SvgjsLinearGradient1010)" stroke-linecap="round" class="Up"></path><path d="M948 175L947 572" stroke-width="8" stroke="url(#SvgjsLinearGradient1010)" stroke-linecap="round" class="Up"></path><path d="M759 111L758 387" stroke-width="10" stroke="url(#SvgjsLinearGradient1010)" stroke-linecap="round" class="Up"></path><path d="M260 427L259 664" stroke-width="10" stroke="url(#SvgjsLinearGradient1011)" stroke-linecap="round" class="Down"></path><path d="M822 293L821 532" stroke-width="10" stroke="url(#SvgjsLinearGradient1010)" stroke-linecap="round" class="Up"></path><path d="M1070 153L1069 356" stroke-width="8" stroke="url(#SvgjsLinearGradient1010)" stroke-linecap="round" class="Up"></path></g><defs><mask id="SvgjsMask1009"><rect width="1440" height="560" fill="#ffffff"></rect></mask><linearGradient x1="0%" y1="100%" x2="0%" y2="0%" id="SvgjsLinearGradient1010"><stop stop-color="rgba(171, 255, 0, 0)" offset="0"></stop><stop stop-color="rgba(171, 255, 0, 1)" offset="1"></stop></linearGradient><linearGradient x1="0%" y1="0%" x2="0%" y2="100%" id="SvgjsLinearGradient1011"><stop stop-color="rgba(171, 255, 0, 0)" offset="0"></stop><stop stop-color="rgba(171, 255, 0, 1)" offset="1"></stop></linearGradient></defs></svg>